<mxfile host="app.diagrams.net" agent="Mozilla/5.0 (Windows NT 10.0; Win64; x64) AppleWebKit/537.36 (KHTML, like Gecko) Chrome/129.0.0.0 Safari/537.36" version="24.7.16">
  <diagram name="Page-1" id="DmDqZjVbwBl1j13biJ9f">
    <mxGraphModel grid="1" page="1" gridSize="10" guides="1" tooltips="1" connect="1" arrows="1" fold="1" pageScale="1" pageWidth="850" pageHeight="1100" math="0" shadow="0">
      <root>
        <mxCell id="0" />
        <mxCell id="1" parent="0" />
        <mxCell id="qytRm4IxIVnQHNmQXPcw-5" value="" style="swimlane;startSize=0;" vertex="1" parent="1">
          <mxGeometry x="40" y="50" width="300" height="540" as="geometry" />
        </mxCell>
        <mxCell id="qytRm4IxIVnQHNmQXPcw-6" value="&lt;b&gt;Make Reservation&lt;/b&gt;" style="rounded=0;whiteSpace=wrap;html=1;" vertex="1" parent="qytRm4IxIVnQHNmQXPcw-5">
          <mxGeometry width="300" height="30" as="geometry" />
        </mxCell>
        <mxCell id="qytRm4IxIVnQHNmQXPcw-7" value="&lt;b&gt;Actors&lt;/b&gt;:&amp;nbsp; &amp;nbsp; &amp;nbsp; &amp;nbsp; &amp;nbsp; &amp;nbsp; &amp;nbsp;Geust, Hotel System" style="rounded=0;whiteSpace=wrap;html=1;align=left;" vertex="1" parent="qytRm4IxIVnQHNmQXPcw-5">
          <mxGeometry y="30" width="300" height="30" as="geometry" />
        </mxCell>
        <mxCell id="qytRm4IxIVnQHNmQXPcw-11" value="&lt;b&gt;Postconditions:&amp;nbsp;&lt;/b&gt;&lt;div&gt;&lt;b&gt;&lt;br&gt;&lt;/b&gt;&lt;/div&gt;&lt;div&gt;The reservation is created and the room availability is updated&lt;/div&gt;&lt;div&gt;&lt;br&gt;&lt;/div&gt;&lt;div&gt;A confirmation email is sent to the guest&lt;/div&gt;&lt;div&gt;&lt;br&gt;&lt;/div&gt;&lt;div&gt;&amp;nbsp;The payment is recorded intoi the hotel system&lt;/div&gt;" style="rounded=0;whiteSpace=wrap;html=1;align=left;" vertex="1" parent="qytRm4IxIVnQHNmQXPcw-5">
          <mxGeometry y="280" width="300" height="120" as="geometry" />
        </mxCell>
        <mxCell id="qytRm4IxIVnQHNmQXPcw-12" value="&lt;b&gt;Excpetions&lt;/b&gt;:&lt;div&gt;&lt;br&gt;&lt;/div&gt;&lt;div&gt;The room is not available, and the system provides an alternative&amp;nbsp;&lt;/div&gt;&lt;div&gt;&lt;br&gt;&lt;/div&gt;&lt;div&gt;The payment is declined or invalid, and the system asks the guest to retry&amp;nbsp;&lt;/div&gt;&lt;div&gt;&lt;br&gt;&lt;/div&gt;&lt;div&gt;&lt;br&gt;&lt;/div&gt;" style="rounded=0;whiteSpace=wrap;html=1;align=left;" vertex="1" parent="qytRm4IxIVnQHNmQXPcw-5">
          <mxGeometry y="400" width="300" height="140" as="geometry" />
        </mxCell>
        <mxCell id="qytRm4IxIVnQHNmQXPcw-9" value="&lt;b&gt;Description:&amp;nbsp;&lt;/b&gt;&lt;div&gt;&lt;br&gt;&lt;div&gt;The guest selects the room type, chooses the date of arrival and departure, and adds his payment details to reserve the room. The system checks the availability of the room and confirms the reservation&lt;/div&gt;&lt;/div&gt;" style="rounded=0;whiteSpace=wrap;html=1;align=left;" vertex="1" parent="1">
          <mxGeometry x="40" y="110" width="300" height="100" as="geometry" />
        </mxCell>
        <mxCell id="qytRm4IxIVnQHNmQXPcw-10" value="&lt;b&gt;Preconditions&lt;/b&gt;:&amp;nbsp;&lt;div&gt;&lt;br&gt;&lt;/div&gt;&lt;div&gt;The guest must have an account&amp;nbsp; and provide the necassary personal information&lt;/div&gt;&lt;div&gt;&lt;br&gt;&lt;/div&gt;&lt;div&gt;The room must be avalibale in the selected dates&lt;/div&gt;&lt;div&gt;&lt;br&gt;&lt;/div&gt;&lt;div&gt;The payment details must be valid and accepted&lt;/div&gt;" style="rounded=0;whiteSpace=wrap;html=1;align=left;" vertex="1" parent="1">
          <mxGeometry x="40" y="210" width="300" height="120" as="geometry" />
        </mxCell>
        <mxCell id="qytRm4IxIVnQHNmQXPcw-13" value="" style="swimlane;startSize=0;" vertex="1" parent="1">
          <mxGeometry x="410" y="50" width="300" height="560" as="geometry" />
        </mxCell>
        <mxCell id="qytRm4IxIVnQHNmQXPcw-14" value="&lt;b&gt;Modify Reservation&lt;/b&gt;" style="rounded=0;whiteSpace=wrap;html=1;" vertex="1" parent="qytRm4IxIVnQHNmQXPcw-13">
          <mxGeometry width="300" height="30" as="geometry" />
        </mxCell>
        <mxCell id="qytRm4IxIVnQHNmQXPcw-15" value="&lt;b&gt;Actors&lt;/b&gt;:&amp;nbsp; &amp;nbsp; &amp;nbsp; &amp;nbsp; &amp;nbsp; &amp;nbsp; &amp;nbsp;Geust, Hotel System" style="rounded=0;whiteSpace=wrap;html=1;align=left;" vertex="1" parent="qytRm4IxIVnQHNmQXPcw-13">
          <mxGeometry y="30" width="300" height="30" as="geometry" />
        </mxCell>
        <mxCell id="qytRm4IxIVnQHNmQXPcw-16" value="&lt;b&gt;Postconditions:&amp;nbsp;&lt;/b&gt;&lt;div&gt;&lt;b&gt;&lt;br&gt;&lt;/b&gt;&lt;/div&gt;&lt;div&gt;&amp;nbsp;The reservation is updated, and the system updates the room availability&lt;/div&gt;&lt;div&gt;&lt;br&gt;&lt;/div&gt;&lt;div&gt;&amp;nbsp;A confirmation email with updated details is sent to the guest&lt;/div&gt;&lt;div&gt;&lt;br&gt;&lt;/div&gt;&lt;div&gt;&amp;nbsp;Any changes in the payment is updated and saved in the system&lt;/div&gt;" style="rounded=0;whiteSpace=wrap;html=1;align=left;" vertex="1" parent="qytRm4IxIVnQHNmQXPcw-13">
          <mxGeometry y="270" width="300" height="150" as="geometry" />
        </mxCell>
        <mxCell id="qytRm4IxIVnQHNmQXPcw-17" value="&lt;b&gt;Excpetions&lt;/b&gt;:&lt;div&gt;&lt;br&gt;&lt;/div&gt;&lt;div&gt;The room is not available, and the system provides an alternative&amp;nbsp;&lt;/div&gt;&lt;div&gt;&lt;br&gt;&lt;/div&gt;&lt;div&gt;The payment is declined or invalid, and the system asks the guest to retry&amp;nbsp;&lt;/div&gt;&lt;div&gt;&lt;br&gt;&lt;/div&gt;&lt;div&gt;&lt;br&gt;&lt;/div&gt;" style="rounded=0;whiteSpace=wrap;html=1;align=left;" vertex="1" parent="qytRm4IxIVnQHNmQXPcw-13">
          <mxGeometry y="420" width="300" height="140" as="geometry" />
        </mxCell>
        <mxCell id="qytRm4IxIVnQHNmQXPcw-18" value="&lt;b&gt;Description:&amp;nbsp;&lt;/b&gt;&lt;div&gt;&lt;br&gt;&lt;/div&gt;&lt;div&gt;The guest updates the details for an existing reservation, such as the number of nights. The system checks the avalibity and updates the booking&amp;nbsp;&lt;/div&gt;" style="rounded=0;whiteSpace=wrap;html=1;align=left;" vertex="1" parent="qytRm4IxIVnQHNmQXPcw-13">
          <mxGeometry y="60" width="300" height="90" as="geometry" />
        </mxCell>
        <mxCell id="qytRm4IxIVnQHNmQXPcw-19" value="&lt;b&gt;Preconditions&lt;/b&gt;:&amp;nbsp;&lt;div&gt;&lt;br&gt;&lt;/div&gt;&lt;div&gt;The guest should have an exisiting reservation&lt;/div&gt;&lt;div&gt;&lt;br&gt;&lt;/div&gt;&lt;div&gt;The room must be available in the selected updated dates&lt;/div&gt;&lt;div&gt;&lt;br&gt;&lt;/div&gt;&lt;div&gt;&lt;br&gt;&lt;/div&gt;" style="rounded=0;whiteSpace=wrap;html=1;align=left;" vertex="1" parent="1">
          <mxGeometry x="410" y="200" width="300" height="120" as="geometry" />
        </mxCell>
        <mxCell id="qytRm4IxIVnQHNmQXPcw-21" value="" style="swimlane;startSize=0;" vertex="1" parent="1">
          <mxGeometry x="850" y="50" width="300" height="550" as="geometry" />
        </mxCell>
        <mxCell id="qytRm4IxIVnQHNmQXPcw-22" value="&lt;b&gt;Cancel Reservation&lt;/b&gt;" style="rounded=0;whiteSpace=wrap;html=1;" vertex="1" parent="qytRm4IxIVnQHNmQXPcw-21">
          <mxGeometry width="300" height="30" as="geometry" />
        </mxCell>
        <mxCell id="qytRm4IxIVnQHNmQXPcw-23" value="&lt;b&gt;Actors&lt;/b&gt;:&amp;nbsp; &amp;nbsp; &amp;nbsp; &amp;nbsp; &amp;nbsp; &amp;nbsp; &amp;nbsp;Geust, Hotel System" style="rounded=0;whiteSpace=wrap;html=1;align=left;" vertex="1" parent="qytRm4IxIVnQHNmQXPcw-21">
          <mxGeometry y="30" width="300" height="30" as="geometry" />
        </mxCell>
        <mxCell id="qytRm4IxIVnQHNmQXPcw-24" value="&lt;b&gt;Postconditions:&amp;nbsp;&lt;/b&gt;&lt;div&gt;&lt;b&gt;&lt;br&gt;&lt;/b&gt;&lt;/div&gt;&lt;div&gt;The reservation is canceled and the room avalibility is updated&lt;/div&gt;&lt;div&gt;&lt;br&gt;&lt;/div&gt;&lt;div&gt;A cancelation confirmation email is sent to the guest&lt;/div&gt;&lt;div&gt;&lt;br&gt;&lt;/div&gt;&lt;div&gt;Refunds are processed to the guest based on the hotel policeis&lt;/div&gt;" style="rounded=0;whiteSpace=wrap;html=1;align=left;" vertex="1" parent="qytRm4IxIVnQHNmQXPcw-21">
          <mxGeometry y="270" width="300" height="140" as="geometry" />
        </mxCell>
        <mxCell id="qytRm4IxIVnQHNmQXPcw-26" value="&lt;b&gt;Excpetions&lt;/b&gt;:&lt;div&gt;&lt;br&gt;&lt;/div&gt;&lt;div&gt;The guest cancels outside the allowed cancelation period, which results in in declining the cancelation request&lt;/div&gt;&lt;div&gt;&lt;br&gt;&lt;/div&gt;&lt;div&gt;The cancellation request is declined because of a technical error.&lt;/div&gt;&lt;div&gt;&lt;br&gt;&lt;/div&gt;" style="rounded=0;whiteSpace=wrap;html=1;align=left;" vertex="1" parent="qytRm4IxIVnQHNmQXPcw-21">
          <mxGeometry y="410" width="300" height="140" as="geometry" />
        </mxCell>
        <mxCell id="qytRm4IxIVnQHNmQXPcw-27" value="&lt;b&gt;Description:&amp;nbsp;&lt;/b&gt;&lt;div&gt;&lt;br&gt;&lt;/div&gt;&lt;div&gt;The guest cancels his reservation and the system process the cancelation and updates the room availability. The system handles any refunds or charges based on the hotel policies&lt;/div&gt;" style="rounded=0;whiteSpace=wrap;html=1;align=left;" vertex="1" parent="1">
          <mxGeometry x="850" y="110" width="300" height="90" as="geometry" />
        </mxCell>
        <mxCell id="qytRm4IxIVnQHNmQXPcw-28" value="&lt;b&gt;Preconditions&lt;/b&gt;:&amp;nbsp;&lt;div&gt;&lt;br&gt;&lt;/div&gt;&lt;div&gt;The guest should have an existing reservation&lt;/div&gt;&lt;div&gt;&lt;br&gt;&lt;/div&gt;&lt;div&gt;The guest must cancel within the allowed cancellation period of time based ont hotel polices&amp;nbsp;&lt;/div&gt;&lt;div&gt;&lt;br&gt;&lt;/div&gt;&lt;div&gt;&lt;br&gt;&lt;/div&gt;" style="rounded=0;whiteSpace=wrap;html=1;align=left;" vertex="1" parent="1">
          <mxGeometry x="850" y="200" width="300" height="120" as="geometry" />
        </mxCell>
      </root>
    </mxGraphModel>
  </diagram>
</mxfile>
